<mxfile host="app.diagrams.net" agent="Mozilla/5.0 (Windows NT 10.0; Win64; x64) AppleWebKit/537.36 (KHTML, like Gecko) Chrome/127.0.0.0 Safari/537.36" version="24.7.7">
  <diagram name="Page-1" id="g4QAmjhZV4nQqwApo-xk">
    <mxGraphModel dx="670" dy="374" grid="1" gridSize="10" guides="1" tooltips="1" connect="1" arrows="1" fold="1" page="1" pageScale="1" pageWidth="850" pageHeight="1100" math="0" shadow="0">
      <root>
        <mxCell id="0" />
        <mxCell id="1" parent="0" />
        <mxCell id="JbM-Cz5iPHTNyznhdLEs-1" value="Cashier" style="shape=umlActor;verticalLabelPosition=bottom;verticalAlign=top;html=1;outlineConnect=0;" vertex="1" parent="1">
          <mxGeometry x="70" y="40" width="30" height="60" as="geometry" />
        </mxCell>
        <mxCell id="JbM-Cz5iPHTNyznhdLEs-2" value="Manager" style="shape=umlActor;verticalLabelPosition=bottom;verticalAlign=top;html=1;outlineConnect=0;" vertex="1" parent="1">
          <mxGeometry x="10" y="40" width="30" height="60" as="geometry" />
        </mxCell>
        <mxCell id="JbM-Cz5iPHTNyznhdLEs-5" value="" style="endArrow=none;dashed=1;html=1;rounded=0;" edge="1" parent="1">
          <mxGeometry width="50" height="50" relative="1" as="geometry">
            <mxPoint x="30" y="1170" as="sourcePoint" />
            <mxPoint x="20" y="130" as="targetPoint" />
          </mxGeometry>
        </mxCell>
        <mxCell id="JbM-Cz5iPHTNyznhdLEs-9" value="" style="endArrow=none;dashed=1;html=1;rounded=0;" edge="1" parent="1">
          <mxGeometry width="50" height="50" relative="1" as="geometry">
            <mxPoint x="80" y="1170" as="sourcePoint" />
            <mxPoint x="85" y="128" as="targetPoint" />
          </mxGeometry>
        </mxCell>
        <mxCell id="JbM-Cz5iPHTNyznhdLEs-10" value="" style="endArrow=none;dashed=1;html=1;rounded=0;" edge="1" parent="1">
          <mxGeometry width="50" height="50" relative="1" as="geometry">
            <mxPoint x="260" y="1170" as="sourcePoint" />
            <mxPoint x="260" y="130" as="targetPoint" />
          </mxGeometry>
        </mxCell>
        <mxCell id="JbM-Cz5iPHTNyznhdLEs-12" value="" style="endArrow=none;dashed=1;html=1;rounded=0;" edge="1" parent="1">
          <mxGeometry width="50" height="50" relative="1" as="geometry">
            <mxPoint x="460" y="1160" as="sourcePoint" />
            <mxPoint x="460" y="130" as="targetPoint" />
          </mxGeometry>
        </mxCell>
        <mxCell id="JbM-Cz5iPHTNyznhdLEs-14" value="System" style="rounded=0;whiteSpace=wrap;html=1;" vertex="1" parent="1">
          <mxGeometry x="220" y="80" width="80" height="40" as="geometry" />
        </mxCell>
        <mxCell id="JbM-Cz5iPHTNyznhdLEs-15" value="Database" style="rounded=0;whiteSpace=wrap;html=1;" vertex="1" parent="1">
          <mxGeometry x="425" y="80" width="80" height="40" as="geometry" />
        </mxCell>
        <mxCell id="JbM-Cz5iPHTNyznhdLEs-17" value="" style="endArrow=classic;html=1;rounded=0;" edge="1" parent="1">
          <mxGeometry width="50" height="50" relative="1" as="geometry">
            <mxPoint x="80" y="160" as="sourcePoint" />
            <mxPoint x="260" y="160" as="targetPoint" />
            <Array as="points" />
          </mxGeometry>
        </mxCell>
        <mxCell id="JbM-Cz5iPHTNyznhdLEs-20" value="Enter&lt;div&gt;credentials&lt;/div&gt;" style="edgeLabel;html=1;align=center;verticalAlign=middle;resizable=0;points=[];" vertex="1" connectable="0" parent="JbM-Cz5iPHTNyznhdLEs-17">
          <mxGeometry x="-0.1231" y="-1" relative="1" as="geometry">
            <mxPoint as="offset" />
          </mxGeometry>
        </mxCell>
        <mxCell id="JbM-Cz5iPHTNyznhdLEs-23" value="" style="endArrow=classic;html=1;rounded=0;edgeStyle=orthogonalEdgeStyle;curved=1;" edge="1" parent="1">
          <mxGeometry width="50" height="50" relative="1" as="geometry">
            <mxPoint x="260" y="160" as="sourcePoint" />
            <mxPoint x="260" y="200" as="targetPoint" />
            <Array as="points">
              <mxPoint x="320" y="160" />
              <mxPoint x="320" y="200" />
              <mxPoint x="260" y="200" />
            </Array>
          </mxGeometry>
        </mxCell>
        <mxCell id="JbM-Cz5iPHTNyznhdLEs-25" value="check the credentials" style="edgeLabel;html=1;align=center;verticalAlign=middle;resizable=0;points=[];" vertex="1" connectable="0" parent="JbM-Cz5iPHTNyznhdLEs-23">
          <mxGeometry x="0.2565" y="-1" relative="1" as="geometry">
            <mxPoint x="17" y="-19" as="offset" />
          </mxGeometry>
        </mxCell>
        <mxCell id="JbM-Cz5iPHTNyznhdLEs-32" value="Alternatives" style="shape=umlFrame;whiteSpace=wrap;html=1;pointerEvents=0;" vertex="1" parent="1">
          <mxGeometry x="50" y="210" width="460" height="200" as="geometry" />
        </mxCell>
        <mxCell id="JbM-Cz5iPHTNyznhdLEs-36" value="" style="endArrow=none;dashed=1;html=1;rounded=0;exitX=0.008;exitY=0.53;exitDx=0;exitDy=0;exitPerimeter=0;entryX=1.007;entryY=0.564;entryDx=0;entryDy=0;entryPerimeter=0;elbow=vertical;" edge="1" parent="1" target="JbM-Cz5iPHTNyznhdLEs-32">
          <mxGeometry width="50" height="50" relative="1" as="geometry">
            <mxPoint x="49.999999999999986" y="322" as="sourcePoint" />
            <mxPoint x="489.1199999999999" y="320.4" as="targetPoint" />
          </mxGeometry>
        </mxCell>
        <mxCell id="JbM-Cz5iPHTNyznhdLEs-37" value="(If credentials are ok)" style="text;html=1;align=center;verticalAlign=middle;resizable=0;points=[];autosize=1;strokeColor=none;fillColor=none;" vertex="1" parent="1">
          <mxGeometry x="50" y="248" width="140" height="30" as="geometry" />
        </mxCell>
        <mxCell id="JbM-Cz5iPHTNyznhdLEs-38" value="credentials ok" style="html=1;verticalAlign=bottom;endArrow=open;dashed=1;endSize=8;curved=0;rounded=0;" edge="1" parent="1">
          <mxGeometry relative="1" as="geometry">
            <mxPoint x="260" y="290" as="sourcePoint" />
            <mxPoint x="80" y="290" as="targetPoint" />
          </mxGeometry>
        </mxCell>
        <mxCell id="JbM-Cz5iPHTNyznhdLEs-39" value="(else)" style="text;html=1;align=center;verticalAlign=middle;resizable=0;points=[];autosize=1;strokeColor=none;fillColor=none;" vertex="1" parent="1">
          <mxGeometry x="58.480000000000004" y="318" width="50" height="30" as="geometry" />
        </mxCell>
        <mxCell id="JbM-Cz5iPHTNyznhdLEs-40" value="credentials is wrong" style="html=1;verticalAlign=bottom;endArrow=open;dashed=1;endSize=8;curved=0;rounded=0;" edge="1" parent="1">
          <mxGeometry x="0.2222" y="2" relative="1" as="geometry">
            <mxPoint x="260" y="348" as="sourcePoint" />
            <mxPoint x="80" y="348" as="targetPoint" />
            <mxPoint as="offset" />
          </mxGeometry>
        </mxCell>
        <mxCell id="JbM-Cz5iPHTNyznhdLEs-43" value="Request credentials again" style="html=1;verticalAlign=bottom;endArrow=open;endSize=8;curved=0;rounded=0;" edge="1" parent="1">
          <mxGeometry relative="1" as="geometry">
            <mxPoint x="260" y="370" as="sourcePoint" />
            <mxPoint x="80" y="370" as="targetPoint" />
          </mxGeometry>
        </mxCell>
        <mxCell id="JbM-Cz5iPHTNyznhdLEs-45" value="" style="endArrow=classic;html=1;rounded=0;" edge="1" parent="1">
          <mxGeometry width="50" height="50" relative="1" as="geometry">
            <mxPoint x="90" y="440" as="sourcePoint" />
            <mxPoint x="460" y="440" as="targetPoint" />
            <Array as="points" />
          </mxGeometry>
        </mxCell>
        <mxCell id="JbM-Cz5iPHTNyznhdLEs-46" value="View all the bag details" style="edgeLabel;html=1;align=center;verticalAlign=middle;resizable=0;points=[];" vertex="1" connectable="0" parent="JbM-Cz5iPHTNyznhdLEs-45">
          <mxGeometry x="-0.1231" y="-1" relative="1" as="geometry">
            <mxPoint as="offset" />
          </mxGeometry>
        </mxCell>
        <mxCell id="JbM-Cz5iPHTNyznhdLEs-47" value="" style="endArrow=classic;html=1;rounded=0;" edge="1" parent="1">
          <mxGeometry width="50" height="50" relative="1" as="geometry">
            <mxPoint x="90" y="460" as="sourcePoint" />
            <mxPoint x="460" y="460" as="targetPoint" />
            <Array as="points" />
          </mxGeometry>
        </mxCell>
        <mxCell id="JbM-Cz5iPHTNyznhdLEs-48" value="Add new bag details and category of the bags" style="edgeLabel;html=1;align=center;verticalAlign=middle;resizable=0;points=[];" vertex="1" connectable="0" parent="JbM-Cz5iPHTNyznhdLEs-47">
          <mxGeometry x="-0.1231" y="-1" relative="1" as="geometry">
            <mxPoint as="offset" />
          </mxGeometry>
        </mxCell>
        <mxCell id="JbM-Cz5iPHTNyznhdLEs-51" value="Alternatives" style="shape=umlFrame;whiteSpace=wrap;html=1;pointerEvents=0;" vertex="1" parent="1">
          <mxGeometry x="65" y="510" width="440" height="200" as="geometry" />
        </mxCell>
        <mxCell id="JbM-Cz5iPHTNyznhdLEs-52" value="&lt;font style=&quot;font-size: 11px;&quot;&gt;(If adding bags and&lt;/font&gt;&lt;div&gt;&lt;font style=&quot;font-size: 11px;&quot;&gt;&amp;nbsp;categories correctly)&lt;/font&gt;&lt;/div&gt;" style="text;html=1;align=center;verticalAlign=middle;resizable=0;points=[];autosize=1;strokeColor=none;fillColor=none;" vertex="1" parent="1">
          <mxGeometry x="85" y="545" width="130" height="40" as="geometry" />
        </mxCell>
        <mxCell id="JbM-Cz5iPHTNyznhdLEs-55" value="added successfully" style="html=1;verticalAlign=bottom;endArrow=open;dashed=1;endSize=8;curved=0;rounded=0;" edge="1" parent="1">
          <mxGeometry relative="1" as="geometry">
            <mxPoint x="265" y="600" as="sourcePoint" />
            <mxPoint x="85" y="600" as="targetPoint" />
          </mxGeometry>
        </mxCell>
        <mxCell id="JbM-Cz5iPHTNyznhdLEs-56" value="adding is correct" style="html=1;verticalAlign=bottom;endArrow=open;dashed=1;endSize=8;curved=0;rounded=0;" edge="1" parent="1">
          <mxGeometry relative="1" as="geometry">
            <mxPoint x="460" y="570" as="sourcePoint" />
            <mxPoint x="260" y="570" as="targetPoint" />
          </mxGeometry>
        </mxCell>
        <mxCell id="JbM-Cz5iPHTNyznhdLEs-58" value="" style="endArrow=none;dashed=1;html=1;rounded=0;exitX=0.008;exitY=0.53;exitDx=0;exitDy=0;exitPerimeter=0;entryX=1.006;entryY=0.522;entryDx=0;entryDy=0;entryPerimeter=0;elbow=vertical;" edge="1" parent="1">
          <mxGeometry width="50" height="50" relative="1" as="geometry">
            <mxPoint x="65" y="620" as="sourcePoint" />
            <mxPoint x="504.1199999999999" y="618.4" as="targetPoint" />
          </mxGeometry>
        </mxCell>
        <mxCell id="JbM-Cz5iPHTNyznhdLEs-59" value="(else)" style="text;html=1;align=center;verticalAlign=middle;resizable=0;points=[];autosize=1;strokeColor=none;fillColor=none;" vertex="1" parent="1">
          <mxGeometry x="85" y="618" width="50" height="30" as="geometry" />
        </mxCell>
        <mxCell id="JbM-Cz5iPHTNyznhdLEs-60" value="adding is wrong" style="html=1;verticalAlign=bottom;endArrow=open;dashed=1;endSize=8;curved=0;rounded=0;" edge="1" parent="1">
          <mxGeometry relative="1" as="geometry">
            <mxPoint x="460" y="648" as="sourcePoint" />
            <mxPoint x="260" y="648" as="targetPoint" />
            <mxPoint as="offset" />
          </mxGeometry>
        </mxCell>
        <mxCell id="JbM-Cz5iPHTNyznhdLEs-61" value="add again" style="html=1;verticalAlign=bottom;endArrow=open;endSize=8;curved=0;rounded=0;" edge="1" parent="1">
          <mxGeometry relative="1" as="geometry">
            <mxPoint x="260" y="660" as="sourcePoint" />
            <mxPoint x="80" y="660" as="targetPoint" />
          </mxGeometry>
        </mxCell>
        <mxCell id="JbM-Cz5iPHTNyznhdLEs-62" value="" style="endArrow=classic;html=1;rounded=0;" edge="1" parent="1">
          <mxGeometry width="50" height="50" relative="1" as="geometry">
            <mxPoint x="80" y="740" as="sourcePoint" />
            <mxPoint x="460" y="740" as="targetPoint" />
            <Array as="points" />
          </mxGeometry>
        </mxCell>
        <mxCell id="JbM-Cz5iPHTNyznhdLEs-63" value="Search bag details based on categories" style="edgeLabel;html=1;align=center;verticalAlign=middle;resizable=0;points=[];" vertex="1" connectable="0" parent="JbM-Cz5iPHTNyznhdLEs-62">
          <mxGeometry x="-0.1231" y="-1" relative="1" as="geometry">
            <mxPoint as="offset" />
          </mxGeometry>
        </mxCell>
        <mxCell id="JbM-Cz5iPHTNyznhdLEs-64" value="Alternatives" style="shape=umlFrame;whiteSpace=wrap;html=1;pointerEvents=0;" vertex="1" parent="1">
          <mxGeometry x="65" y="790" width="440" height="200" as="geometry" />
        </mxCell>
        <mxCell id="JbM-Cz5iPHTNyznhdLEs-65" value="&lt;font style=&quot;font-size: 9px;&quot;&gt;(if search bag details based on categories)&lt;/font&gt;" style="text;html=1;align=center;verticalAlign=middle;resizable=0;points=[];autosize=1;strokeColor=none;fillColor=none;" vertex="1" parent="1">
          <mxGeometry x="65" y="820" width="190" height="30" as="geometry" />
        </mxCell>
        <mxCell id="JbM-Cz5iPHTNyznhdLEs-68" value="show details" style="html=1;verticalAlign=bottom;endArrow=open;endSize=8;curved=0;rounded=0;" edge="1" parent="1">
          <mxGeometry relative="1" as="geometry">
            <mxPoint x="260" y="880" as="sourcePoint" />
            <mxPoint x="85" y="880" as="targetPoint" />
          </mxGeometry>
        </mxCell>
        <mxCell id="JbM-Cz5iPHTNyznhdLEs-69" value="show details" style="html=1;verticalAlign=bottom;endArrow=open;endSize=8;curved=0;rounded=0;dashed=1;" edge="1" parent="1">
          <mxGeometry relative="1" as="geometry">
            <mxPoint x="460" y="880" as="sourcePoint" />
            <mxPoint x="260" y="880" as="targetPoint" />
          </mxGeometry>
        </mxCell>
        <mxCell id="JbM-Cz5iPHTNyznhdLEs-72" value="" style="endArrow=none;dashed=1;html=1;rounded=0;exitX=0.008;exitY=0.53;exitDx=0;exitDy=0;exitPerimeter=0;entryX=1.006;entryY=0.522;entryDx=0;entryDy=0;entryPerimeter=0;elbow=vertical;" edge="1" parent="1">
          <mxGeometry width="50" height="50" relative="1" as="geometry">
            <mxPoint x="65" y="901.6" as="sourcePoint" />
            <mxPoint x="504.1199999999999" y="900" as="targetPoint" />
          </mxGeometry>
        </mxCell>
        <mxCell id="JbM-Cz5iPHTNyznhdLEs-73" value="(else)" style="text;html=1;align=center;verticalAlign=middle;resizable=0;points=[];autosize=1;strokeColor=none;fillColor=none;" vertex="1" parent="1">
          <mxGeometry x="75" y="908" width="50" height="30" as="geometry" />
        </mxCell>
        <mxCell id="JbM-Cz5iPHTNyznhdLEs-74" value="search again" style="html=1;verticalAlign=bottom;endArrow=open;endSize=8;curved=0;rounded=0;" edge="1" parent="1">
          <mxGeometry relative="1" as="geometry">
            <mxPoint x="260" y="960" as="sourcePoint" />
            <mxPoint x="85" y="960" as="targetPoint" />
          </mxGeometry>
        </mxCell>
        <mxCell id="JbM-Cz5iPHTNyznhdLEs-75" value="wrong searching" style="html=1;verticalAlign=bottom;endArrow=open;endSize=8;curved=0;rounded=0;dashed=1;" edge="1" parent="1">
          <mxGeometry relative="1" as="geometry">
            <mxPoint x="460" y="960" as="sourcePoint" />
            <mxPoint x="260" y="960" as="targetPoint" />
          </mxGeometry>
        </mxCell>
        <mxCell id="JbM-Cz5iPHTNyznhdLEs-76" value="" style="endArrow=classic;html=1;rounded=0;" edge="1" parent="1">
          <mxGeometry width="50" height="50" relative="1" as="geometry">
            <mxPoint x="30" y="1040" as="sourcePoint" />
            <mxPoint x="260" y="1040" as="targetPoint" />
            <Array as="points" />
          </mxGeometry>
        </mxCell>
        <mxCell id="JbM-Cz5iPHTNyznhdLEs-77" value="create user account for cashier" style="edgeLabel;html=1;align=center;verticalAlign=middle;resizable=0;points=[];" vertex="1" connectable="0" parent="JbM-Cz5iPHTNyznhdLEs-76">
          <mxGeometry x="-0.1231" y="-1" relative="1" as="geometry">
            <mxPoint as="offset" />
          </mxGeometry>
        </mxCell>
      </root>
    </mxGraphModel>
  </diagram>
</mxfile>
